<svg style="color:black" width="1463" height="480" viewBox="0 0 1463 480" fill="none" xmlns="http://www.w3.org/2000/svg">
<path fill-rule="evenodd" clip-rule="evenodd" d="M257.019 480.591H240C107.452 480.591 0 373.14 0 240.591C0 108.043 107.452 0.591431 240 0.591431C372.548 0.591431 480 108.043 480 240.591C480 252.46 479.137 264.134 477.469 275.554H443.875C445.807 264.198 446.815 252.518 446.815 240.591C446.815 126.371 354.221 33.7766 240 33.7766C125.779 33.7766 33.1852 126.371 33.1852 240.591C33.1852 354.812 125.779 447.406 240 447.406H363.005C331.594 466.129 295.557 477.898 257.019 480.591ZM408.983 411.851H240C145.416 411.851 68.7407 335.175 68.7407 240.591C68.7407 146.008 145.416 69.3322 240 69.3322C334.584 69.3322 411.259 146.008 411.259 240.591C411.259 252.563 410.028 264.259 407.684 275.554H373.613C376.523 264.4 378.074 252.686 378.074 240.591C378.074 164.335 316.256 102.517 240 102.517C163.744 102.517 101.926 164.335 101.926 240.591C101.926 316.848 163.744 378.665 240 378.665H437.054C428.702 390.563 419.3 401.67 408.983 411.851ZM240 343.11H457.72C462.747 332.454 467.014 321.369 470.452 309.925H240C201.708 309.925 170.667 278.883 170.667 240.591C170.667 202.3 201.708 171.258 240 171.258C278.292 171.258 309.333 202.3 309.333 240.591C309.333 253.363 305.894 265.296 299.889 275.554H336.397C340.358 264.637 342.518 252.859 342.518 240.591C342.518 183.972 296.619 138.073 240 138.073C183.381 138.073 137.481 183.972 137.481 240.591C137.481 297.211 183.381 343.11 240 343.11ZM696.34 378.6C617.377 378.6 569.409 322.146 569.409 240.6C569.409 156.472 619.96 102.6 696.34 102.6C774.934 102.6 823.639 158.317 823.639 240.231C823.639 325.098 772.72 378.6 696.34 378.6ZM696.34 139.13C644.682 139.13 612.581 179.349 612.581 240.231C612.581 302.59 645.42 341.333 696.34 341.333C748.736 341.333 780.468 301.114 780.468 240.6C780.468 178.611 747.26 139.13 696.34 139.13ZM892.801 374.911H854.057V180.825H888.004L893.17 216.985H895.753C907.929 191.526 931.544 177.135 960.694 177.135C1004.23 177.135 1027.85 208.499 1027.85 256.467V374.911H988.737V260.526C988.737 226.579 973.239 210.713 945.935 210.713C913.833 210.713 892.801 236.173 892.801 273.071V374.911ZM1244.09 374.911V103.338H1204.98V218.461H1202.76C1192.8 194.477 1169.93 177.135 1136.72 177.135C1087.64 177.135 1054.43 216.247 1054.43 279.344C1054.43 340.226 1086.53 378.6 1136.35 378.6C1166.6 378.6 1192.43 364.21 1202.76 340.595H1204.98L1209.41 374.911H1244.09ZM1204.98 289.306C1204.98 321.408 1182.1 345.392 1148.16 345.392C1115.68 345.392 1094.28 322.884 1094.28 279.344C1094.28 237.649 1113.47 210.713 1148.89 210.713C1180.99 210.713 1204.98 232.483 1204.98 267.905V289.306ZM1367.99 378.6C1311.17 378.6 1273.53 337.643 1273.53 278.237C1273.53 218.461 1311.17 177.135 1367.99 177.135C1424.82 177.135 1462.08 218.461 1462.08 278.237C1462.08 337.643 1424.82 378.6 1367.99 378.6ZM1367.99 210.713C1334.41 210.713 1313.38 236.542 1313.38 277.868C1313.38 318.456 1333.31 344.654 1367.99 344.654C1401.2 344.654 1422.23 319.563 1422.23 277.499C1422.23 237.649 1402.68 210.713 1367.99 210.713Z" fill="currentColor"/>
</svg>
